<svg width="184" height="47" viewBox="0 0 184 47" fill="none" xmlns="http://www.w3.org/2000/svg">
<g clip-path="url(#clip0_2_4804)">
<path d="M33.6499 43.8501C35.8908 42.5627 37.9033 40.9149 39.6062 38.9732C41.3347 37.0202 42.6018 34.705 43.314 32.1982C44.2139 28.935 43.782 24.7821 41.4809 21.9388C39.0136 18.8995 35.195 18.8027 35.195 18.8027C36.3889 22.1207 36.293 25.7646 34.9264 29.0155C33.5598 32.2664 31.0217 34.8881 27.8129 36.3633C24.6041 37.8384 20.9577 38.0599 17.5933 36.9839C14.2289 35.908 11.3908 33.6129 9.63916 30.5514L1.48145 35.2486C3.02652 37.9222 5.08452 40.2657 7.53781 42.1451C9.9911 44.0245 12.7916 45.4031 15.7791 46.2019C18.7666 47.0008 21.8827 47.2042 24.9491 46.8007C28.0154 46.3971 30.9721 45.3945 33.6499 43.8501Z" fill="#A7B6BF"/>
<path d="M33.6498 23.5028C33.6498 25.8264 32.9593 28.0979 31.6655 30.03C30.3718 31.962 28.5329 33.4679 26.3815 34.3571C24.23 35.2463 21.8626 35.479 19.5787 35.0256C17.2947 34.5723 15.1968 33.4534 13.5501 31.8103C11.9035 30.1672 10.7821 28.0738 10.3278 25.7948C9.8735 23.5158 10.1067 21.1536 10.9978 19.0068C11.889 16.86 13.3981 15.0251 15.3343 13.7342C17.2706 12.4432 19.547 11.7542 21.8757 11.7542C24.9984 11.7542 27.9932 12.992 30.2013 15.1953C32.4094 17.3985 33.6498 20.3868 33.6498 23.5028Z" fill="#DDB726"/>
<path d="M10.1013 3.14447C7.86038 4.43184 5.84787 6.07963 4.14501 8.02132C2.4165 9.97432 1.14941 12.2896 0.437211 14.7964C-0.462741 18.0623 -0.0307659 22.2125 2.27034 25.0557C4.73759 28.0951 8.55616 28.1946 8.55616 28.1946C7.36231 24.8766 7.45815 21.2327 8.82477 17.9818C10.1914 14.7309 12.7295 12.1092 15.9383 10.6341C19.1471 9.1589 22.7935 8.93743 26.1579 10.0134C29.5223 11.0893 32.3603 13.3845 34.112 16.4459L42.2697 11.7487C40.7249 9.07491 38.6671 6.73115 36.2139 4.85143C33.7607 2.97171 30.9603 1.59289 27.9727 0.793798C24.9852 -0.00529745 21.8691 -0.208997 18.8026 0.194349C15.7361 0.597695 12.7793 1.60017 10.1013 3.14447Z" fill="#A7B6BF"/>
<path d="M59.9235 33.5648C57.1341 33.5648 54.9096 32.7635 53.25 31.1609L55.3822 27.7347C55.949 28.3662 56.6456 28.8684 57.4245 29.2069C58.2034 29.5455 59.0463 29.7125 59.8958 29.6965C60.4434 29.7267 60.9852 29.5709 61.4326 29.2544C61.6109 29.1244 61.7555 28.9537 61.8542 28.7567C61.953 28.5596 62.0031 28.3418 62.0003 28.1215C61.9929 27.9082 61.9336 27.6998 61.8274 27.5145C61.7213 27.3292 61.5715 27.1724 61.3911 27.0577C60.9287 26.7261 60.4139 26.4739 59.8681 26.3117C59.1989 26.0957 58.5425 25.842 57.9021 25.5518C57.2219 25.2503 56.5648 24.8993 55.936 24.5019C55.2909 24.0749 54.7664 23.4898 54.413 22.8026C53.9901 21.9884 53.7805 21.0806 53.8038 20.1638C53.7947 19.411 53.9454 18.6647 54.2461 17.9742C54.5468 17.2836 54.9906 16.6644 55.5483 16.1574C56.7113 15.0521 58.2897 14.4995 60.2835 14.4995C62.6649 14.4995 64.6402 15.1995 66.2093 16.5995L64.1325 19.9152C63.0452 18.9035 61.6035 18.3579 60.1173 18.3955C59.6556 18.367 59.1989 18.5042 58.8297 18.7823C58.6809 18.907 58.5624 19.0638 58.4832 19.241C58.4041 19.4181 58.3663 19.6108 58.3728 19.8046C58.3844 20.0077 58.4461 20.2047 58.5524 20.3782C58.6587 20.5517 58.8062 20.6964 58.982 20.7993C59.4442 21.123 59.9531 21.3746 60.4911 21.5454C61.1604 21.7771 61.8167 22.0445 62.4572 22.3467C63.1363 22.6609 63.7932 23.0209 64.4232 23.4243C65.0599 23.851 65.5789 24.4306 65.9324 25.1097C66.3516 25.9005 66.5613 26.7851 66.5416 27.6794C66.5416 29.4662 65.9555 30.8938 64.7832 31.9622C63.611 33.0306 61.9911 33.5648 59.9235 33.5648Z" fill="#231F20"/>
<path d="M75.7615 33.5655C74.3419 33.5655 73.2435 32.93 72.4663 31.659V38.318H68.4512V19.8882H72.4663V21.4632C73.262 20.1922 74.3604 19.5567 75.7615 19.5567C76.477 19.5378 77.1859 19.6972 77.8241 20.0205C78.4623 20.3437 79.0097 20.8206 79.4167 21.4079C80.3213 22.644 80.7736 24.3571 80.7736 26.5473C80.7736 28.7375 80.3213 30.4506 79.4167 31.6866C79.0148 32.2811 78.4692 32.7649 77.8304 33.0933C77.1915 33.4217 76.48 33.5841 75.7615 33.5655ZM74.4047 30.0288C74.7444 30.0365 75.0797 29.9519 75.3748 29.784C75.67 29.616 75.9137 29.3711 76.08 29.0755C76.5104 28.3045 76.7166 27.4289 76.6754 26.5473C76.7178 25.67 76.5115 24.7984 76.08 24.0329C75.9112 23.7404 75.6666 23.4988 75.3717 23.3334C75.0769 23.1681 74.7428 23.0852 74.4047 23.0934C74.0028 23.1074 73.6118 23.2273 73.2714 23.4408C72.931 23.6543 72.6532 23.9539 72.4663 24.3092V28.7854C72.6615 29.1472 72.9478 29.4519 73.2971 29.6696C73.6227 29.8956 74.0081 30.0205 74.4047 30.0288Z" fill="#231F20"/>
<path d="M93.667 33.2228H89.6795V31.9241C89.2943 32.45 88.7725 32.8608 88.1703 33.1123C87.5407 33.4018 86.856 33.5526 86.1628 33.5544C85.6202 33.5609 85.0816 33.4605 84.5779 33.259C84.0743 33.0574 83.6154 32.7588 83.2275 32.3801C82.3968 31.5972 81.9814 30.515 81.9814 29.1334C81.9814 27.7519 82.3876 26.6881 83.1998 25.9421C84.0099 25.2097 85.0699 24.8143 86.1628 24.8369C86.8656 24.8343 87.562 24.9704 88.2119 25.2375C88.7977 25.4569 89.3074 25.8407 89.6795 26.3427V24.823C89.6917 24.5419 89.6422 24.2615 89.5346 24.0014C89.427 23.7414 89.2638 23.5078 89.0565 23.3172C88.5698 22.9222 87.9518 22.7248 87.3258 22.7645C86.1628 22.7645 85.0644 23.2251 84.0306 24.1461L82.6183 21.4659C84.0232 20.1765 85.8508 19.5317 88.1011 19.5317C89.7626 19.5317 91.1056 19.9232 92.1301 20.706C93.1547 21.4889 93.667 22.736 93.667 24.4473V33.2228ZM87.7411 30.9294C88.6466 30.9294 89.2918 30.5813 89.6795 29.8795V28.5256C89.2918 27.8274 88.6457 27.4774 87.7411 27.4756C87.2735 27.4576 86.817 27.621 86.4674 27.9315C86.2985 28.0929 86.1666 28.2888 86.0806 28.5058C85.9946 28.7228 85.9565 28.9557 85.9689 29.1887C85.9568 29.4237 85.995 29.6586 86.081 29.8778C86.1669 30.0969 86.2986 30.2953 86.4674 30.4597C86.6387 30.6211 86.8406 30.7467 87.0613 30.8292C87.2819 30.9118 87.5168 30.9496 87.7522 30.9405L87.7411 30.9294Z" fill="#231F20"/>
<path d="M100.351 33.2224H96.3359V19.8768H100.351V21.5622C100.742 20.9547 101.28 20.4557 101.916 20.1116C102.521 19.7414 103.213 19.5365 103.923 19.5176V23.3859C103.643 23.315 103.354 23.2779 103.065 23.2754C102.535 23.2829 102.015 23.4104 101.542 23.6484C101.07 23.8601 100.66 24.1882 100.351 24.6016V33.2224Z" fill="#231F20"/>
<path d="M117.825 33.2227H113.145L110.819 28.3873L109.656 30.1281V33.2227H105.641V14.793H109.656V25.3203L112.979 19.877H117.603L113.588 25.8729L117.825 33.2227Z" fill="#231F20"/>
<path d="M129.87 33.2227H125.883V31.924C125.498 32.4498 124.976 32.8606 124.374 33.1121C123.744 33.4016 123.059 33.5524 122.366 33.5542C121.823 33.564 121.283 33.4665 120.777 33.2674C120.271 33.0682 119.81 32.7713 119.42 32.3937C118.589 31.6109 118.174 30.5287 118.174 29.1471C118.174 27.7656 118.58 26.7018 119.392 25.9558C120.202 25.2237 121.262 24.8283 122.355 24.8505C123.058 24.848 123.754 24.9841 124.404 25.2512C124.99 25.4699 125.5 25.8539 125.872 26.3564V24.8367C125.884 24.5556 125.835 24.2752 125.727 24.0151C125.619 23.755 125.456 23.5215 125.249 23.3308C124.762 22.9359 124.144 22.7385 123.518 22.7782C122.355 22.7782 121.257 23.2387 120.223 24.1598L118.811 21.4796C120.214 20.1901 122.041 19.5454 124.293 19.5454C125.955 19.5454 127.298 19.9368 128.323 20.7197C129.347 21.5026 129.859 22.7414 129.859 24.4361L129.87 33.2227ZM123.945 30.9293C124.85 30.9293 125.495 30.5812 125.883 29.8793V28.5254C125.495 27.8273 124.849 27.4773 123.945 27.4755C123.477 27.4575 123.02 27.6209 122.671 27.9314C122.502 28.0928 122.37 28.2887 122.284 28.5057C122.198 28.7226 122.16 28.9556 122.172 29.1886C122.16 29.4236 122.198 29.6585 122.284 29.8776C122.37 30.0968 122.502 30.2952 122.671 30.4596C122.841 30.6196 123.041 30.7444 123.26 30.8269C123.478 30.9094 123.711 30.948 123.945 30.9404V30.9293Z" fill="#231F20"/>
<path d="M144.158 33.2226H140.171V31.62C139.739 32.1992 139.181 32.6719 138.537 33.0016C137.821 33.3784 137.021 33.5685 136.211 33.5542C134.972 33.5542 134.049 33.2318 133.442 32.5871C132.835 31.9424 132.53 31.0582 132.528 29.9346V19.877H136.543V28.332C136.543 29.4556 137.06 30.0175 138.094 30.0175C138.96 30.0175 139.652 29.5569 140.171 28.6359V19.877H144.158V33.2226Z" fill="#231F20"/>
<path d="M151.541 33.2222H147.525V23.358H145.809V19.8765H147.525V19.0752C147.525 17.6568 147.913 16.5424 148.688 15.7319C149.464 14.9214 150.534 14.5161 151.901 14.5161C153.322 14.5161 154.384 14.8569 155.085 15.5385L153.894 18.191C153.747 18.0396 153.571 17.9199 153.375 17.8391C153.18 17.7584 152.97 17.7183 152.759 17.7213C152.594 17.7145 152.43 17.7431 152.277 17.805C152.124 17.867 151.986 17.9609 151.873 18.0805C151.639 18.3574 151.52 18.7134 151.541 19.0752V19.8765H153.7V23.358H151.541V33.2222Z" fill="#231F20"/>
<path d="M160.773 33.5651C158.835 33.5651 157.265 32.9204 156.065 31.631C154.866 30.3415 154.27 28.6422 154.279 26.5331C154.279 24.5437 154.852 22.8812 155.996 21.5457C157.141 20.2102 158.655 19.5425 160.538 19.5425C162.404 19.5425 163.867 20.1964 164.927 21.5043C165.986 22.8121 166.517 24.5529 166.519 26.7265V27.8317H158.295C158.349 28.5275 158.654 29.1802 159.153 29.6692C159.428 29.9217 159.751 30.1166 160.103 30.2424C160.455 30.3681 160.829 30.4222 161.202 30.4014C161.707 30.389 162.205 30.2812 162.67 30.0836C163.161 29.9027 163.605 29.6148 163.971 29.2409L165.743 31.6448C164.497 32.925 162.84 33.5651 160.773 33.5651ZM162.711 25.1654C162.691 24.5475 162.494 23.9484 162.144 23.4384C161.803 22.9521 161.252 22.7062 160.496 22.7062C160.188 22.685 159.88 22.7409 159.6 22.8688C159.319 22.9966 159.075 23.1925 158.89 23.4384C158.533 23.9478 158.322 24.545 158.281 25.1654H162.711Z" fill="#231F20"/>
<path d="M180.046 33.2226H176.03V24.7952C176.03 23.655 175.513 23.0839 174.48 23.0821C173.629 23.0821 172.936 23.5518 172.403 24.4913V33.2226H168.388V19.8769H172.403V21.5348C172.831 20.9575 173.385 20.485 174.023 20.1532C174.729 19.7589 175.526 19.5542 176.335 19.5592C177.574 19.5592 178.501 19.8907 179.118 20.5539C179.734 21.217 180.044 22.1104 180.046 23.2341V33.2226Z" fill="#231F20"/>
</g>
<defs>
<clipPath id="clip0_2_4804">
<rect width="184" height="47" fill="white"/>
</clipPath>
</defs>
</svg>
